<svg width="80" height="13" viewBox="0 0 80 13" fill="none" xmlns="http://www.w3.org/2000/svg">
<path d="M2.13379 7.40039C2.72262 7.40066 3.2001 7.91493 3.2002 8.5498V10.8496C3.2002 11.4846 2.72268 11.9997 2.13379 12H1.06641C0.477422 11.9998 0 11.4846 0 10.8496V8.5498C9.79152e-05 7.91486 0.477483 7.40054 1.06641 7.40039H2.13379ZM7.43359 5C8.02258 5.00015 8.5 5.52275 8.5 6.16699V10.833C8.5 11.4772 8.02258 11.9998 7.43359 12H6.36621C5.77732 11.9997 5.2998 11.4772 5.2998 10.833V6.16699C5.2998 5.52283 5.77732 5.00027 6.36621 5H7.43359ZM12.833 2.40039C13.422 2.40039 13.9003 2.91564 13.9004 3.55176V10.8477C13.9004 11.4839 13.4221 12 12.833 12H11.7666C11.1775 12 10.7002 11.4839 10.7002 10.8477V3.55176C10.7003 2.91566 11.1776 2.40043 11.7666 2.40039H12.833ZM18.1338 0C18.7227 0.00025962 19.2002 0.50384 19.2002 1.125V10.875C19.2002 11.4962 18.7227 11.9997 18.1338 12H17.0664C16.4774 11.9999 16 11.4962 16 10.875V1.125C16 0.503771 16.4774 0.000148442 17.0664 0H18.1338Z" fill="#171717"/>
<path d="M33.3123 8.95898C34.6909 7.68035 36.7101 7.68017 38.0886 8.95898C38.1579 9.02775 38.198 9.12509 38.2 9.22754C38.2019 9.33008 38.1651 9.42913 38.0984 9.50098L35.9392 11.8906C35.876 11.9606 35.7898 12 35.7 12C35.6101 12 35.5239 11.9606 35.4607 11.8906L33.3015 9.50098C33.2348 9.42908 33.198 9.33008 33.2 9.22754C33.2019 9.125 33.2429 9.02772 33.3123 8.95898ZM30.3083 6.11035C33.3469 3.29649 38.053 3.29649 41.0916 6.11035C41.1601 6.17632 41.199 6.26742 41.2 6.3623C41.2008 6.45702 41.1634 6.54798 41.0964 6.61523L39.8201 7.89941C39.6885 8.03052 39.4755 8.03384 39.3406 7.90625C38.3429 7.0068 37.045 6.50879 35.699 6.50879C34.3538 6.50934 33.0565 7.00733 32.0593 7.90625C31.9244 8.03384 31.7114 8.03052 31.5798 7.89941L30.3035 6.61523C30.2364 6.54808 30.1991 6.45699 30.2 6.3623C30.2009 6.26739 30.2398 6.17632 30.3083 6.11035ZM27.3074 3.19336C31.9992 -1.06447 39.4007 -1.06441 44.0925 3.19336C44.1604 3.25662 44.1994 3.34338 44.2 3.43359C44.2005 3.52373 44.1635 3.61084 44.0964 3.6748L42.8093 4.9043C42.6767 5.0305 42.4615 5.03148 42.3269 4.90723C40.5393 3.29788 38.1664 2.40049 35.7 2.40039C33.2334 2.4005 30.8607 3.29782 29.073 4.90723C28.9385 5.03167 28.7231 5.03069 28.5906 4.9043L27.3035 3.6748C27.2364 3.61081 27.1994 3.52372 27.2 3.43359C27.2006 3.34338 27.2394 3.25657 27.3074 3.19336Z" fill="#171717"/>
<rect opacity="0.35" x="52.7" y="0.5" width="24" height="12" rx="3" stroke="#171717"/>
<path opacity="0.4" d="M78.2 4.66667V8.66667C79.0047 8.3279 79.528 7.53981 79.528 6.66667C79.528 5.79354 79.0047 5.00545 78.2 4.66667" fill="#171717"/>
<rect x="54.2" y="2" width="21" height="9" rx="1.33333" fill="#171717"/>
</svg>
