<svg width="29" height="12" viewBox="0 0 29 12" fill="none" xmlns="http://www.w3.org/2000/svg">
<path d="M3.92572 0C1.63324 0 -6.10352e-05 1.56738 -6.10352e-05 3.71338V3.72803C-6.10352e-05 5.73486 1.42084 7.21436 3.44965 7.21436C4.89984 7.21436 5.82269 6.47461 6.21088 5.63965H6.35736C6.35736 5.72021 6.35004 5.80078 6.35004 5.88135C6.26947 7.90283 5.55902 9.54346 3.88177 9.54346C2.9516 9.54346 2.29974 9.06006 2.02142 8.32031L1.99945 8.24707H0.139099L0.153748 8.32764C0.490662 9.94629 1.94086 11.0962 3.88177 11.0962C6.54047 11.0962 8.14447 8.98682 8.14447 5.42725V5.4126C8.14447 1.604 6.18158 0 3.92572 0ZM3.9184 5.76416C2.71722 5.76416 1.84564 4.88525 1.84564 3.66211V3.64746C1.84564 2.46826 2.77582 1.53809 3.94037 1.53809C5.11224 1.53809 6.02777 2.48291 6.02777 3.69141V3.70605C6.02777 4.8999 5.11224 5.76416 3.9184 5.76416ZM11.0617 3.98438C11.7355 3.98438 12.2262 3.47168 12.2262 2.82715C12.2262 2.17529 11.7355 1.66992 11.0617 1.66992C10.3952 1.66992 9.89711 2.17529 9.89711 2.82715C9.89711 3.47168 10.3952 3.98438 11.0617 3.98438ZM11.0617 9.41895C11.7355 9.41895 12.2262 8.91357 12.2262 8.26172C12.2262 7.60986 11.7355 7.10449 11.0617 7.10449C10.3952 7.10449 9.89711 7.60986 9.89711 8.26172C9.89711 8.91357 10.3952 9.41895 11.0617 9.41895ZM19.1058 10.8325H20.9149V8.80371H22.3358V7.24365H20.9149V0.263672H18.2416C16.806 2.44629 15.3045 4.87793 13.9349 7.2583V8.80371H19.1058V10.8325ZM15.6927 7.2876V7.17773C16.7181 5.3833 17.9413 3.42773 19.0252 1.77246H19.1351V7.2876H15.6927ZM26.3077 10.8325H28.1973V0.263672H26.315L23.5538 2.20459V3.98438L26.1832 2.12402H26.3077V10.8325Z" fill="#171717"/>
</svg>
