<svg width="32" height="51" viewBox="0 0 32 51" fill="none" xmlns="http://www.w3.org/2000/svg">
<path d="M0 31.2625V38.7182H2.1168C2.45124 38.7182 2.78161 38.71 3.11605 38.6937C4.20504 38.6407 5.28995 38.4939 6.35447 38.2532C6.88061 38.135 7.39859 37.9922 7.91249 37.825V50.9703H16.1064V32.376C17.0567 31.2829 17.6808 30.3285 18.0152 29.8024C18.2477 29.4394 18.8228 28.5176 19.4182 27.2492C19.8465 26.3396 20.2176 25.4016 20.5317 24.4431C20.858 23.4479 21.1272 22.4364 21.3393 21.4127C21.5636 20.3441 21.7267 19.2633 21.8328 18.1743C21.947 17.0404 22 15.8984 22 14.7564C22 5.34297 17.6114 0 11 0C4.65369 0 0.477196 4.81275 0.477196 13.0107C0.477196 19.145 2.802 25.1242 6.77048 29.9329C5.23693 30.7772 3.54431 31.2544 1.69262 31.2544H0V31.2625ZM14.0671 14.1772C14.0671 17.9336 13.3248 21.3678 11.9503 24.1739C9.72748 20.8947 8.45903 17.0323 8.45903 13.0148C8.45903 9.4175 9.46236 7.45977 11.155 7.45977C12.8476 7.45977 14.063 9.57657 14.063 14.1772H14.0671Z" fill="#0C3C3B"/>
<circle cx="27" cy="45.9703" r="5" fill="#FFC53E"/>
</svg>
